<svg width="18" height="20" viewBox="0 0 18 20" fill="none" xmlns="http://www.w3.org/2000/svg">
<path fill-rule="evenodd" clip-rule="evenodd" d="M4.95225 3.21315C4.95225 3.4973 4.83938 3.76981 4.63846 3.97073C4.43753 4.17165 4.16503 4.28453 3.88088 4.28453C3.59673 4.28453 3.32422 4.17165 3.1233 3.97073C2.92238 3.76981 2.8095 3.4973 2.8095 3.21315C2.8095 2.92901 2.92238 2.6565 3.1233 2.45558C3.32422 2.25466 3.59673 2.14178 3.88088 2.14178C4.16503 2.14178 4.43753 2.25466 4.63846 2.45558C4.83938 2.6565 4.95225 2.92901 4.95225 3.21315ZM4.95225 6.24443C5.66709 5.9917 6.26957 5.4944 6.6532 4.84042C7.03684 4.18644 7.17693 3.41789 7.04872 2.67061C6.9205 1.92333 6.53224 1.24543 5.95255 0.756736C5.37287 0.268037 4.63908 0 3.88088 0C3.12268 0 2.38889 0.268037 1.8092 0.756736C1.22952 1.24543 0.841256 1.92333 0.713043 2.67061C0.58483 3.41789 0.724921 4.18644 1.10856 4.84042C1.49219 5.4944 2.09467 5.9917 2.8095 6.24443V7.49865C2.8095 8.35109 3.14813 9.16862 3.7509 9.77138C4.35367 10.3741 5.17119 10.7128 6.02363 10.7128H8.16638V13.7526C7.45114 14.0054 6.84829 14.5028 6.46439 15.1571C6.08049 15.8114 5.94025 16.5803 6.06847 17.328C6.19669 18.0756 6.5851 18.7539 7.16506 19.2428C7.74502 19.7318 8.47918 20 9.23775 20C9.99633 20 10.7305 19.7318 11.3104 19.2428C11.8904 18.7539 12.2788 18.0756 12.407 17.328C12.5353 16.5803 12.395 15.8114 12.0111 15.1571C11.6272 14.5028 11.0244 14.0054 10.3091 13.7526V10.7128H12.4519C13.3043 10.7128 14.1218 10.3741 14.7246 9.77138C15.3274 9.16862 15.666 8.35109 15.666 7.49865V6.24443C16.3808 5.9917 16.9833 5.4944 17.367 4.84042C17.7506 4.18644 17.8907 3.41789 17.7625 2.67061C17.6343 1.92333 17.246 1.24543 16.6663 0.756736C16.0866 0.268037 15.3528 0 14.5946 0C13.8364 0 13.1026 0.268037 12.523 0.756736C11.9433 1.24543 11.555 1.92333 11.4268 2.67061C11.2986 3.41789 11.4387 4.18644 11.8223 4.84042C12.2059 5.4944 12.8084 5.9917 13.5233 6.24443V7.49865C13.5233 7.7828 13.4104 8.05531 13.2095 8.25623C13.0085 8.45715 12.736 8.57003 12.4519 8.57003H6.02363C5.73948 8.57003 5.46697 8.45715 5.26605 8.25623C5.06513 8.05531 4.95225 7.7828 4.95225 7.49865V6.24443ZM10.3091 16.7839C10.3091 17.068 10.1963 17.3406 9.99533 17.5415C9.79441 17.7424 9.5219 17.8553 9.23775 17.8553C8.95361 17.8553 8.6811 17.7424 8.48018 17.5415C8.27926 17.3406 8.16638 17.068 8.16638 16.7839C8.16638 16.4998 8.27926 16.2272 8.48018 16.0263C8.6811 15.8254 8.95361 15.7125 9.23775 15.7125C9.5219 15.7125 9.79441 15.8254 9.99533 16.0263C10.1963 16.2272 10.3091 16.4998 10.3091 16.7839ZM14.5946 4.28453C14.8788 4.28453 15.1513 4.17165 15.3522 3.97073C15.5531 3.76981 15.666 3.4973 15.666 3.21315C15.666 2.92901 15.5531 2.6565 15.3522 2.45558C15.1513 2.25466 14.8788 2.14178 14.5946 2.14178C14.3105 2.14178 14.038 2.25466 13.8371 2.45558C13.6361 2.6565 13.5233 2.92901 13.5233 3.21315C13.5233 3.4973 13.6361 3.76981 13.8371 3.97073C14.038 4.17165 14.3105 4.28453 14.5946 4.28453Z" fill="#6ED370"/>
</svg>
