<svg width="21" height="19" viewBox="0 0 21 19" fill="none" xmlns="http://www.w3.org/2000/svg">
<path fill-rule="evenodd" clip-rule="evenodd" d="M11.6043 0.937511C11.6043 0.688868 11.5055 0.450408 11.3297 0.274591C11.1539 0.0987732 10.9154 0 10.6667 0C10.4181 0 10.1796 0.0987732 10.0038 0.274591C9.82801 0.450408 9.72924 0.688868 9.72924 0.937511V2.50003H8.49922C8.11797 2.50003 7.74421 2.60003 7.41296 2.78753L5.80294 3.70879C5.75538 3.73601 5.70149 3.75023 5.64669 3.75004H2.85416C2.60551 3.75004 2.36705 3.84882 2.19124 4.02463C2.01542 4.20045 1.91665 4.43891 1.91665 4.68755C1.91665 4.9362 2.01542 5.17466 2.19124 5.35047C2.36705 5.52629 2.60551 5.62507 2.85416 5.62507H3.38916L0.749132 11.4901C0.671154 11.6636 0.647806 11.8568 0.682189 12.0439C0.716573 12.231 0.80706 12.4032 0.941635 12.5376L1.60414 11.8751L0.941635 12.5376V12.5389L0.944135 12.5414L0.946635 12.5439L0.954135 12.5514L0.974135 12.5701L1.03039 12.6201C1.29328 12.8405 1.58108 13.0293 1.8879 13.1827C2.67504 13.5664 3.54103 13.7608 4.41668 13.7502C5.51669 13.7502 6.3617 13.4752 6.94545 13.1827C7.25227 13.0293 7.54007 12.8405 7.80297 12.6201L7.85922 12.5701L7.87922 12.5514L7.88672 12.5439L7.88922 12.5414L7.89047 12.5389L7.22921 11.8751L7.89172 12.5376C8.02629 12.4032 8.11678 12.231 8.15116 12.0439C8.18554 11.8568 8.1622 11.6636 8.08422 11.4901L5.44419 5.62507H5.64669C6.02794 5.62507 6.4017 5.52506 6.73295 5.33756L8.34422 4.4163C8.39142 4.3893 8.44485 4.37508 8.49922 4.37505H9.72924V16.2502H6.6042C6.35556 16.2502 6.1171 16.349 5.94128 16.5248C5.76546 16.7006 5.66669 16.9391 5.66669 17.1877C5.66669 17.4363 5.76546 17.6748 5.94128 17.8506C6.1171 18.0264 6.35556 18.1252 6.6042 18.1252H14.7293C14.9779 18.1252 15.2164 18.0264 15.3922 17.8506C15.568 17.6748 15.6668 17.4363 15.6668 17.1877C15.6668 16.9391 15.568 16.7006 15.3922 16.5248C15.2164 16.349 14.9779 16.2502 14.7293 16.2502H11.6043V4.37505H12.8343C12.8887 4.37508 12.9421 4.3893 12.9893 4.4163L14.6018 5.33631C14.9318 5.52631 15.3056 5.62507 15.6868 5.62507H15.8893L13.2493 11.4901C13.1713 11.6636 13.148 11.8568 13.1823 12.0439C13.2167 12.231 13.3072 12.4032 13.4418 12.5376L14.1043 11.8751L13.4418 12.5376V12.5389L13.4443 12.5414L13.4468 12.5439L13.4543 12.5514L13.4743 12.5701L13.5305 12.6201C13.7934 12.8405 14.0812 13.0292 14.388 13.1827C15.1752 13.5664 16.0412 13.7608 16.9168 13.7502C18.0168 13.7502 18.8618 13.4752 19.4456 13.1827C19.7524 13.0293 20.0402 12.8405 20.3031 12.6201L20.3594 12.5701L20.3719 12.5576L20.3794 12.5514L20.3869 12.5439L20.3894 12.5414L20.3906 12.5389L19.7294 11.8751L20.3919 12.5376C20.5264 12.4032 20.6169 12.231 20.6513 12.0439C20.6857 11.8568 20.6623 11.6636 20.5844 11.4901L17.9456 5.62507H18.4793C18.728 5.62507 18.9664 5.52629 19.1423 5.35047C19.3181 5.17466 19.4169 4.9362 19.4169 4.68755C19.4169 4.43891 19.3181 4.20045 19.1423 4.02463C18.9664 3.84882 18.728 3.75004 18.4793 3.75004H15.6868C15.6324 3.75001 15.579 3.73579 15.5318 3.70879L13.9193 2.78878C13.5893 2.59998 13.2157 2.50046 12.8355 2.50003H11.6043V0.937511ZM2.78541 11.5339C3.14166 11.7026 3.68292 11.8751 4.41668 11.8751C5.15043 11.8751 5.69169 11.7026 6.04794 11.5339L4.41668 7.90884L2.78541 11.5339ZM15.2856 11.5339C15.6418 11.7026 16.1831 11.8751 16.9168 11.8751C17.6506 11.8751 18.1918 11.7026 18.5481 11.5339L16.9168 7.90884L15.2856 11.5339Z" fill="white"/>
</svg>
