<svg width="21" height="10" viewBox="0 0 21 10" fill="none" xmlns="http://www.w3.org/2000/svg">
<path d="M2.56675 5C2.56675 3.29 3.95675 1.9 5.66675 1.9H9.66675V0H5.66675C2.90675 0 0.666748 2.24 0.666748 5C0.666748 7.76 2.90675 10 5.66675 10H9.66675V8.1H5.66675C3.95675 8.1 2.56675 6.71 2.56675 5ZM6.66675 6H14.6667V4H6.66675V6ZM15.6667 0H11.6667V1.9H15.6667C17.3767 1.9 18.7667 3.29 18.7667 5C18.7667 6.71 17.3767 8.1 15.6667 8.1H11.6667V10H15.6667C18.4267 10 20.6667 7.76 20.6667 5C20.6667 2.24 18.4267 0 15.6667 0Z" fill="#58A6FF"/>
</svg>
