<svg width="252" height="252" viewBox="0 0 252 252" fill="none" xmlns="http://www.w3.org/2000/svg">
<g clip-path="url(#clip0_1_733)">
<g filter="url(#filter0_d_1_733)">
<path d="M126 235.553C186.889 235.553 236.25 186.338 236.25 125.628C236.25 64.9185 186.889 15.7035 126 15.7035C65.1106 15.7035 15.75 64.9185 15.75 125.628C15.75 186.338 65.1106 235.553 126 235.553Z" fill="#0D1117"/>
</g>
<path d="M126 235.553C186.889 235.553 236.25 186.338 236.25 125.628C236.25 64.9185 186.889 15.7035 126 15.7035C65.1106 15.7035 15.75 64.9185 15.75 125.628C15.75 186.338 65.1106 235.553 126 235.553Z" stroke="white" stroke-width="5.25"/>
<path d="M126 235.553C186.889 235.553 236.25 186.338 236.25 125.628C236.25 64.9185 186.889 15.7035 126 15.7035C65.1106 15.7035 15.75 64.9185 15.75 125.628C15.75 186.338 65.1106 235.553 126 235.553Z" fill="white"/>
<g filter="url(#filter1_d_1_733)">
<path d="M23.625 125.695C23.625 170.892 52.9298 209.065 93.6239 222.6C98.7427 223.495 100.662 220.431 100.662 217.751C100.662 215.323 100.534 207.281 100.534 198.726C74.8125 203.447 68.1581 192.466 66.1106 186.723C64.9589 183.786 59.9681 174.721 55.6172 172.295C52.0341 170.379 46.9153 165.657 55.4892 165.529C63.5512 165.401 69.3098 172.933 71.2294 175.997C80.4431 191.446 95.1595 187.108 101.046 184.424C101.942 177.786 104.629 173.314 107.573 170.762C84.7941 168.21 60.9919 159.401 60.9919 120.334C60.9919 109.224 64.9589 100.032 71.4853 92.8825C70.4616 90.3307 66.8784 79.8603 72.5091 65.8135C72.5091 65.8135 81.083 63.1341 100.662 76.2839C108.852 73.9872 117.554 72.8369 126.256 72.8369C134.958 72.8369 143.66 73.9872 151.85 76.2839C171.429 63.0065 180.003 65.8155 180.003 65.8155C185.633 79.8584 182.05 90.3267 181.027 92.8805C187.553 100.03 191.52 109.094 191.52 120.33C191.52 159.526 167.59 168.206 144.811 170.762C148.522 173.954 151.722 180.082 151.722 189.658C151.722 203.32 151.594 214.298 151.594 217.747C151.594 220.427 153.513 223.616 158.632 222.596C199.07 209.067 228.375 170.766 228.375 125.697C228.375 69.2605 182.562 23.5553 126 23.5553C69.4378 23.5553 23.625 69.2624 23.625 125.695Z" fill="#342B5B"/>
</g>
<path d="M23.625 125.695C23.625 170.892 52.9298 209.065 93.6239 222.6C98.7427 223.495 100.662 220.431 100.662 217.751C100.662 215.323 100.534 207.281 100.534 198.726C74.8125 203.447 68.1581 192.466 66.1106 186.723C64.9589 183.786 59.9681 174.721 55.6172 172.295C52.0341 170.379 46.9153 165.657 55.4892 165.529C63.5512 165.401 69.3098 172.933 71.2294 175.997C80.4431 191.446 95.1595 187.108 101.046 184.424C101.942 177.786 104.629 173.314 107.573 170.762C84.7941 168.21 60.9919 159.401 60.9919 120.334C60.9919 109.224 64.9589 100.032 71.4853 92.8825C70.4616 90.3307 66.8784 79.8603 72.5091 65.8135C72.5091 65.8135 81.083 63.1341 100.662 76.2839C108.852 73.9872 117.554 72.8369 126.256 72.8369C134.958 72.8369 143.66 73.9872 151.85 76.2839C171.429 63.0065 180.003 65.8155 180.003 65.8155C185.633 79.8584 182.05 90.3267 181.027 92.8805C187.553 100.03 191.52 109.094 191.52 120.33C191.52 159.526 167.59 168.206 144.811 170.762C148.522 173.954 151.722 180.082 151.722 189.658C151.722 203.32 151.594 214.298 151.594 217.747C151.594 220.427 153.513 223.616 158.632 222.596C199.07 209.067 228.375 170.766 228.375 125.697C228.375 69.2605 182.562 23.5553 126 23.5553C69.4378 23.5553 23.625 69.2624 23.625 125.695Z" fill="#342B5B"/>
<g filter="url(#filter2_i_1_733)">
<path d="M23.625 125.695C23.625 170.892 52.9298 209.065 93.6239 222.6C98.7427 223.495 100.662 220.431 100.662 217.751C100.662 215.323 100.534 207.281 100.534 198.726C74.8125 203.447 68.1581 192.466 66.1106 186.723C64.9589 183.786 59.9681 174.721 55.6172 172.295C52.0341 170.379 46.9153 165.657 55.4892 165.529C63.5512 165.401 69.3098 172.933 71.2294 175.997C80.4431 191.446 95.1595 187.108 101.046 184.424C101.942 177.786 104.629 173.314 107.572 170.762C84.7941 168.21 60.9919 159.401 60.9919 120.334C60.9919 109.224 64.9589 100.032 71.4853 92.8825C70.4616 90.3307 66.8784 79.8603 72.5091 65.8135C72.5091 65.8135 81.083 63.1341 100.662 76.2839C108.852 73.9872 117.554 72.8369 126.256 72.8369C134.958 72.8369 143.66 73.9872 151.85 76.2839C171.429 63.0065 180.003 65.8155 180.003 65.8155C185.633 79.8584 182.05 90.3267 181.027 92.8805C187.553 100.03 191.52 109.094 191.52 120.33C191.52 159.526 167.59 168.206 144.811 170.762C148.523 173.954 151.722 180.082 151.722 189.658C151.722 203.32 151.594 214.298 151.594 217.747C151.594 220.427 153.513 223.616 158.632 222.596C199.07 209.067 228.375 170.766 228.375 125.697C228.375 69.2605 182.562 23.5553 126 23.5553C69.4378 23.5553 23.625 69.2624 23.625 125.695Z" fill="#342B5B"/>
</g>
</g>
<defs>
<filter id="filter0_d_1_733" x="5.25" y="10.4535" width="241.5" height="240.85" filterUnits="userSpaceOnUse" color-interpolation-filters="sRGB">
<feFlood flood-opacity="0" result="BackgroundImageFix"/>
<feColorMatrix in="SourceAlpha" type="matrix" values="0 0 0 0 0 0 0 0 0 0 0 0 0 0 0 0 0 0 127 0" result="hardAlpha"/>
<feOffset dy="5.25"/>
<feGaussianBlur stdDeviation="5.25"/>
<feColorMatrix type="matrix" values="0 0 0 0 0 0 0 0 0 0 0 0 0 0 0 0 0 0 0.240942 0"/>
<feBlend mode="normal" in2="BackgroundImageFix" result="effect1_dropShadow_1_733"/>
<feBlend mode="normal" in="SourceGraphic" in2="effect1_dropShadow_1_733" result="shape"/>
</filter>
<filter id="filter1_d_1_733" x="13.125" y="15.6803" width="225.75" height="220.235" filterUnits="userSpaceOnUse" color-interpolation-filters="sRGB">
<feFlood flood-opacity="0" result="BackgroundImageFix"/>
<feColorMatrix in="SourceAlpha" type="matrix" values="0 0 0 0 0 0 0 0 0 0 0 0 0 0 0 0 0 0 127 0" result="hardAlpha"/>
<feOffset dy="2.625"/>
<feGaussianBlur stdDeviation="5.25"/>
<feColorMatrix type="matrix" values="0 0 0 0 1 0 0 0 0 1 0 0 0 0 1 0 0 0 0.529297 0"/>
<feBlend mode="normal" in2="BackgroundImageFix" result="effect1_dropShadow_1_733"/>
<feBlend mode="normal" in="SourceGraphic" in2="effect1_dropShadow_1_733" result="shape"/>
</filter>
<filter id="filter2_i_1_733" x="23.625" y="23.5553" width="204.75" height="199.235" filterUnits="userSpaceOnUse" color-interpolation-filters="sRGB">
<feFlood flood-opacity="0" result="BackgroundImageFix"/>
<feBlend mode="normal" in="SourceGraphic" in2="BackgroundImageFix" result="shape"/>
<feColorMatrix in="SourceAlpha" type="matrix" values="0 0 0 0 0 0 0 0 0 0 0 0 0 0 0 0 0 0 127 0" result="hardAlpha"/>
<feOffset/>
<feGaussianBlur stdDeviation="2.625"/>
<feComposite in2="hardAlpha" operator="arithmetic" k2="-1" k3="1"/>
<feColorMatrix type="matrix" values="0 0 0 0 0.258824 0 0 0 0 0.137255 0 0 0 0 0.431373 0 0 0 0.70355 0"/>
<feBlend mode="normal" in2="shape" result="effect1_innerShadow_1_733"/>
</filter>
<clipPath id="clip0_1_733">
<rect width="252" height="251.257" fill="white"/>
</clipPath>
</defs>
</svg>
