<svg width="23" height="16" viewBox="0 0 23 16" fill="none" xmlns="http://www.w3.org/2000/svg">
<path d="M11.6667 0.5C6.66675 0.5 2.39675 3.61 0.666748 8C2.39675 12.39 6.66675 15.5 11.6667 15.5C16.6667 15.5 20.9367 12.39 22.6667 8C20.9367 3.61 16.6667 0.5 11.6667 0.5ZM11.6667 13C8.90675 13 6.66675 10.76 6.66675 8C6.66675 5.24 8.90675 3 11.6667 3C14.4267 3 16.6667 5.24 16.6667 8C16.6667 10.76 14.4267 13 11.6667 13ZM11.6667 5C10.0067 5 8.66675 6.34 8.66675 8C8.66675 9.66 10.0067 11 11.6667 11C13.3267 11 14.6667 9.66 14.6667 8C14.6667 6.34 13.3267 5 11.6667 5Z" fill="#9CFFF9"/>
</svg>
